# xmcd CD database file
#
# Track frame offsets:
#	150
#	34702
#	57500
#	88098
#	111478
#	138635
#	163841
#
# Disc length: 2528 seconds
#
# Revision: 0
# Processed by: cddbd v1.5.1PL2 Copyright (c) Steve Scherf et al.
# Submitted via: CDex 1.51
#
DISCID=6509de07
DTITLE=Terrero de Jesus - Afrosamba
DYEAR=2002
DGENRE=Jazz
TTITLE0=Exu
TTITLE1=Ogum
TTITLE2=Iemanja
TTITLE3=Xango
TTITLE4=Oxum
TTITLE5=Oxala
TTITLE6=Festa de Santo
EXTD=YEAR: 2002
EXTT0=
EXTT1=
EXTT2=
EXTT3=
EXTT4=
EXTT5=
EXTT6=
PLAYORDER=
